<?xml version="1.0" encoding="utf-8"?>
<!-- Generator: Adobe Illustrator 16.0.0, SVG Export Plug-In . SVG Version: 6.00 Build 0)  -->
<!DOCTYPE svg PUBLIC "-//W3C//DTD SVG 1.1//EN" "http://www.w3.org/Graphics/SVG/1.1/DTD/svg11.dtd">
<svg version="1.1" id="Layer_1" xmlns="http://www.w3.org/2000/svg" xmlns:xlink="http://www.w3.org/1999/xlink" x="0px" y="0px"
	 width="100px" height="100px" viewBox="0 0 100 100" enable-background="new 0 0 100 100" xml:space="preserve">
<g id="mouse" display="none">
	<path display="inline" fill="#8C6239" d="M50,74.5c-8.443,0-15.313-6.87-15.313-15.313V40.813c0-8.443,6.87-15.313,15.313-15.313
		c8.442,0,15.313,6.869,15.313,15.313v18.375C65.313,67.63,58.442,74.5,50,74.5z M50,28.563c-6.754,0-12.25,5.496-12.25,12.25
		v18.375c0,6.755,5.496,12.25,12.25,12.25c6.755,0,12.25-5.495,12.25-12.25V40.813C62.25,34.058,56.755,28.563,50,28.563z
		 M50.187,46.458c-2.111,0-3.828-1.717-3.828-3.828v-4.594c0-2.111,1.717-3.828,3.828-3.828c2.112,0,3.828,1.717,3.828,3.828v4.594
		C54.015,44.74,52.299,46.458,50.187,46.458z M50.187,37.27c-0.422,0-0.766,0.343-0.766,0.766v4.594
		c0,0.422,0.344,0.766,0.766,0.766c0.421,0,0.766-0.343,0.766-0.766v-4.594C50.953,37.613,50.608,37.27,50.187,37.27z"/>
</g>
<g id="pencil">
	<path fill="#8C6239" d="M39.177,69.484l-8.662-8.662c-0.598-0.598-0.599-1.566,0-2.165l24.295-24.294
		c0.177-0.177,0.394-0.307,0.632-0.381l12.52-3.857c1.083-0.334,2.248,0.831,1.914,1.914l-3.857,12.52
		c-0.074,0.239-0.204,0.456-0.381,0.632L41.343,69.484C40.744,70.083,39.776,70.083,39.177,69.484z M33.764,59.74l6.497,6.496
		l22.944-22.943l2.893-9.39l-9.39,2.893L33.764,59.74z"/>
	<path fill="#8C6239" d="M57.791,42.209c-0.108-0.109-0.202-0.233-0.274-0.371l-2.98-5.681c-0.392-0.75-0.104-1.675,0.646-2.068
		c0.748-0.392,1.672-0.103,2.067,0.645l2.76,5.258l5.258,2.759c0.749,0.397,1.036,1.32,0.646,2.068
		c-0.394,0.749-1.318,1.037-2.068,0.645l-5.682-2.98C58.024,42.412,57.9,42.318,57.791,42.209z"/>
	<path fill="#8C6239" d="M44.036,64.626l-8.662-8.662c-0.599-0.599-0.598-1.567,0-2.165c0.599-0.599,1.567-0.599,2.166,0
		l8.662,8.662c0.599,0.599,0.599,1.566,0,2.165C45.604,65.224,44.635,65.225,44.036,64.626z"/>
</g>
<g id="browser" display="none">
	<path display="inline" fill="#8C6239" d="M72.969,69.903H27.031c-0.846,0-1.531-0.685-1.531-1.531V31.627
		c0-0.847,0.685-1.531,1.531-1.531h45.938c0.847,0,1.531,0.685,1.531,1.531v36.745C74.5,69.219,73.815,69.903,72.969,69.903z
		 M28.563,66.841h42.875V33.159H28.563V66.841z"/>
	<path display="inline" fill="#8C6239" d="M72.679,44.127H27.031c-0.846,0-1.531-0.685-1.531-1.531s0.685-1.531,1.531-1.531h45.647
		c0.847,0,1.531,0.685,1.531,1.531S73.525,44.127,72.679,44.127z"/>
	<path display="inline" fill="#8C6239" d="M34.912,37.117c0,0.773-0.628,1.401-1.401,1.401c-0.775,0-1.401-0.628-1.401-1.401
		s0.626-1.401,1.401-1.401C34.284,35.715,34.912,36.344,34.912,37.117"/>
	<path display="inline" fill="#8C6239" d="M40.365,37.117c0,0.773-0.628,1.401-1.401,1.401c-0.775,0-1.401-0.628-1.401-1.401
		s0.626-1.401,1.401-1.401C39.737,35.715,40.365,36.344,40.365,37.117"/>
	<path display="inline" fill="#8C6239" d="M45.819,37.117c0,0.773-0.628,1.401-1.401,1.401c-0.776,0-1.401-0.628-1.401-1.401
		s0.625-1.401,1.401-1.401C45.191,35.715,45.819,36.344,45.819,37.117"/>
</g>
<g id="camera" display="none">
	<path display="inline" fill="#8C6239" d="M54.746,69.906H27.031c-0.845,0-1.531-0.685-1.531-1.531V50.803
		c0-0.847,0.687-1.531,1.531-1.531h27.715c0.845,0,1.531,0.685,1.531,1.531v17.572C56.277,69.222,55.591,69.906,54.746,69.906z
		 M28.563,66.844h24.652v-14.51H28.563V66.844z"/>
	<path display="inline" fill="#8C6239" d="M72.969,67.089c-0.119,0-0.239-0.014-0.357-0.042l-12.338-2.958
		c-0.689-0.166-1.176-0.78-1.176-1.489v-5.918c0-0.705,0.48-1.317,1.163-1.486L72.6,52.134c0.457-0.11,0.941-0.011,1.313,0.279
		c0.371,0.292,0.588,0.736,0.588,1.207v11.938c0,0.47-0.215,0.912-0.583,1.202C73.644,66.976,73.31,67.089,72.969,67.089z
		 M62.16,61.392l9.277,2.226v-8.039l-9.277,2.301V61.392z"/>
	<path display="inline" fill="#8C6239" d="M32.117,46.072c-3.23,0-5.859-2.55-5.859-5.683s2.629-5.682,5.859-5.682
		s5.858,2.549,5.858,5.682S35.347,46.072,32.117,46.072z M32.117,37.77c-1.542,0-2.796,1.175-2.796,2.62
		c0,1.445,1.254,2.62,2.796,2.62c1.542,0,2.796-1.175,2.796-2.62C34.913,38.945,33.659,37.77,32.117,37.77z"/>
	<path display="inline" fill="#8C6239" d="M48.189,46.07c-4.556,0-8.263-3.583-8.263-7.988s3.707-7.988,8.263-7.988
		s8.262,3.583,8.262,7.988S52.745,46.07,48.189,46.07z M48.189,33.156c-2.868,0-5.201,2.21-5.201,4.926
		c0,2.715,2.333,4.926,5.201,4.926c2.867,0,5.2-2.21,5.2-4.926C53.389,35.366,51.056,33.156,48.189,33.156z"/>
</g>
</svg>
