<?xml version="1.0" encoding="utf-8"?>
<!-- Generator: Adobe Illustrator 16.0.0, SVG Export Plug-In . SVG Version: 6.00 Build 0)  -->
<!DOCTYPE svg PUBLIC "-//W3C//DTD SVG 1.1//EN" "http://www.w3.org/Graphics/SVG/1.1/DTD/svg11.dtd">
<svg version="1.1" id="Layer_1" xmlns="http://www.w3.org/2000/svg" xmlns:xlink="http://www.w3.org/1999/xlink" x="0px" y="0px"
	 width="100px" height="100px" viewBox="0 0 100 100" enable-background="new 0 0 100 100" xml:space="preserve">
<path d="M72.61,29.511c-0.678-0.735-1.392-1.438-2.138-2.104C65.029,22.544,57.855,19.58,50,19.58
	c-7.856,0-15.03,2.964-20.473,7.827c-0.747,0.667-1.46,1.368-2.138,2.104c-5.058,5.484-8.154,12.803-8.154,20.833
	c0,7.856,2.963,15.03,7.827,20.472c0.667,0.746,1.368,1.46,2.104,2.139C34.651,78.012,41.97,81.108,50,81.108
	s15.349-3.097,20.833-8.153c0.735-0.679,1.437-1.393,2.104-2.139c4.862-5.442,7.826-12.616,7.826-20.472
	C80.764,42.313,77.668,34.995,72.61,29.511z M50,22.58c7.029,0,13.451,2.63,18.347,6.952L50,47.879L31.653,29.532
	C36.549,25.21,42.972,22.58,50,22.58z M22.236,50.344c0-7.204,2.759-13.774,7.274-18.713L47.879,50L29.188,68.691
	C24.866,63.795,22.236,57.373,22.236,50.344z M50,78.108c-7.204,0-13.774-2.759-18.714-7.274L50,52.121l18.714,18.714
	C63.774,75.35,57.204,78.108,50,78.108z M70.813,68.691L52.121,50L70.49,31.631c4.515,4.939,7.273,11.51,7.273,18.713
	C77.764,57.373,75.134,63.795,70.813,68.691z"/>
</svg>
